<svg xmlns="http://www.w3.org/2000/svg" viewBox="0 0 64 64" role="img" aria-label="Overview">
  <defs>
    <linearGradient id="panel" x1="10" y1="12" x2="54" y2="54" gradientUnits="userSpaceOnUse">
      <stop offset="0" stop-color="#e0f2fe"/>
      <stop offset="1" stop-color="#eff6ff"/>
    </linearGradient>
    <linearGradient id="sun" x1="20" y1="8" x2="42" y2="34" gradientUnits="userSpaceOnUse">
      <stop offset="0" stop-color="#fde047"/>
      <stop offset="1" stop-color="#f59e0b"/>
    </linearGradient>
  </defs>
  <rect x="9" y="12" width="46" height="40" rx="10" fill="url(#panel)" stroke="#93c5fd" stroke-width="2"/>
  <circle cx="25" cy="24" r="8" fill="url(#sun)"/>
  <path d="M25 10v5M25 33v5M11 24h5M34 24h5M15.4 14.4l3.5 3.5M31.1 30.1l3.5 3.5M34.6 14.4l-3.5 3.5M18.9 30.1l-3.5 3.5" stroke="#f59e0b" stroke-width="3" stroke-linecap="round"/>
  <path d="M18 45h28" stroke="#bfdbfe" stroke-width="4" stroke-linecap="round"/>
  <path d="M18 39l8-6 7 5 12-12" fill="none" stroke="#2563eb" stroke-width="4" stroke-linecap="round" stroke-linejoin="round"/>
  <circle cx="18" cy="39" r="2.5" fill="#2563eb"/>
  <circle cx="26" cy="33" r="2.5" fill="#2563eb"/>
  <circle cx="33" cy="38" r="2.5" fill="#2563eb"/>
  <circle cx="45" cy="26" r="2.5" fill="#2563eb"/>
</svg>
